<?xml version="1.0" standalone="no"?><!DOCTYPE svg PUBLIC "-//W3C//DTD SVG 1.1//EN" "http://www.w3.org/Graphics/SVG/1.1/DTD/svg11.dtd"><svg t="1699284391014" class="icon" viewBox="0 0 1024 1024" version="1.1" xmlns="http://www.w3.org/2000/svg" p-id="1035" xmlns:xlink="http://www.w3.org/1999/xlink" width="200" height="200"><path d="M859.733 426.667H676.267c14.933-40.534 34.133-117.334 23.466-200.534-4.266-55.466-38.4-98.133-85.333-113.066-34.133-10.667-70.4-6.4-89.6 12.8-23.467 23.466-34.133 70.4-46.933 121.6C469.333 283.733 460.8 320 448 339.2c-34.133 59.733-123.733 83.2-134.4 87.467H256c-12.8 0-21.333 8.533-21.333 21.333v448c0 12.8 8.533 21.333 21.333 21.333h68.267c2.133 0 6.4 0 8.533-2.133h394.667C930.133 915.2 940.8 516.267 940.8 512c-2.133-46.933-44.8-85.333-81.067-85.333z m-689.066-2.134h-64c-12.8 0-21.334 8.534-21.334 21.334v448c0 12.8 8.534 21.333 21.334 21.333h64c12.8 0 21.333-8.533 21.333-21.333v-448c0-10.667-10.667-21.334-21.333-21.334z" fill="#666666" p-id="1036"></path></svg>