<?xml version="1.0" standalone="no"?><!DOCTYPE svg PUBLIC "-//W3C//DTD SVG 1.1//EN" "http://www.w3.org/Graphics/SVG/1.1/DTD/svg11.dtd"><svg t="1699284383941" class="icon" viewBox="0 0 1024 1024" version="1.1" xmlns="http://www.w3.org/2000/svg" p-id="890" xmlns:xlink="http://www.w3.org/1999/xlink" width="200" height="200"><path d="M859.733 426.667H676.267c14.933-40.534 34.133-117.334 23.466-200.534-4.266-55.466-38.4-98.133-85.333-113.066-34.133-10.667-70.4-6.4-89.6 12.8-23.467 23.466-34.133 70.4-46.933 121.6C469.333 283.733 460.8 320 448 339.2c-36.267 59.733-117.333 85.333-123.733 87.467H256c-12.8 0-21.333 8.533-21.333 21.333v450.133c0 6.4 2.133 10.667 6.4 14.934 4.266 4.266 8.533 6.4 14.933 6.4l76.8-2.134c57.6 0 315.733-2.133 392.533-2.133C928 915.2 938.667 516.267 938.667 512c0-46.933-42.667-85.333-78.934-85.333z m-134.4 445.866c-85.333 0-403.2 2.134-403.2 2.134h-44.8V469.333h59.734C341.333 467.2 441.6 439.467 486.4 362.667c14.933-25.6 23.467-61.867 34.133-102.4S541.867 172.8 556.8 155.733c4.267-4.266 23.467-8.533 44.8-2.133 14.933 4.267 51.2 23.467 57.6 78.933 12.8 106.667-32 204.8-32 206.934-2.133 6.4-2.133 14.933 2.133 21.333 4.267 6.4 10.667 10.667 17.067 10.667h213.333c12.8 0 36.267 17.066 36.267 42.666 0 70.4-29.867 358.4-170.667 358.4zM172.8 469.333c12.8 0 21.333-8.533 21.333-21.333s-8.533-21.333-21.333-21.333h-64c-12.8 0-21.333 8.533-21.333 21.333v448c0 12.8 8.533 21.333 21.333 21.333h64c12.8 0 21.333-8.533 21.333-21.333s-8.533-21.333-21.333-21.333h-42.667V469.333H172.8z" fill="#666666" p-id="891"></path></svg>