<?xml version="1.0" standalone="no"?><!DOCTYPE svg PUBLIC "-//W3C//DTD SVG 1.1//EN" "http://www.w3.org/Graphics/SVG/1.1/DTD/svg11.dtd"><svg t="1699284784733" class="icon" viewBox="0 0 1024 1024" version="1.1" xmlns="http://www.w3.org/2000/svg" p-id="1075" xmlns:xlink="http://www.w3.org/1999/xlink" width="200" height="200"><path d="M900 416.67a49 49 0 0 0-39.27-33.06l-211.66-32.34-1.1-0.16-92.83-197.77A48.8 48.8 0 0 0 510.56 125 48.82 48.82 0 0 0 466 153.34L373.62 350.1l-0.47 1-212.76 32.5a49.26 49.26 0 0 0-27.82 83.09l155.59 159.47L252 847.94a49.25 49.25 0 0 0 72.44 51l186.12-102.86L696.7 899a49.26 49.26 0 0 0 72.43-51L733 626.16 888.55 466.7A49.06 49.06 0 0 0 900 416.67z" p-id="1076"></path></svg>