<?xml version="1.0" standalone="no"?><!DOCTYPE svg PUBLIC "-//W3C//DTD SVG 1.1//EN" "http://www.w3.org/Graphics/SVG/1.1/DTD/svg11.dtd"><svg t="1699284781360" class="icon" viewBox="0 0 1024 1024" version="1.1" xmlns="http://www.w3.org/2000/svg" p-id="932" xmlns:xlink="http://www.w3.org/1999/xlink" width="200" height="200"><path d="M720.56 905.18A49.24 49.24 0 0 1 696.7 899L510.56 796.08l-1 0.56L324.42 899a49.26 49.26 0 0 1-72.44-51l36.18-221.78L132.57 466.7a49.26 49.26 0 0 1 27.82-83.09l212.76-32.5L466 153.34a49.26 49.26 0 0 1 89.17 0L648 351.11l1.1 0.16 211.65 32.34a49.26 49.26 0 0 1 27.83 83.09L733 626.16l0.17 1 36 220.74a49.37 49.37 0 0 1-48.57 57.24zM190.12 439.77l162.13 166.17-37.49 229.82 195.8-108.23 195.79 108.23-37.49-229.82L831 439.77l-223.74-34.19-96.7-206-96.7 206z" p-id="933"></path></svg>